<svg id="Capa_1" data-name="Capa 1" xmlns="http://www.w3.org/2000/svg" viewBox="0 0 205.94 134.52"><defs><style>.cls-1{fill:#fff;}</style></defs><title>favicon</title><path class="cls-1" d="M209.83,111.89a18.53,18.53,0,0,0-11.71,2.48L159,92.28a16.26,16.26,0,0,0,.36-1.87A15.51,15.51,0,0,0,141.5,73.26l-20.1-39A12.69,12.69,0,1,0,109.27,40c.28,0,.55,0,.83.06L130.87,80.3a15.5,15.5,0,0,0,20.21,22l38.87,22c-.22.65-.42,1.32-.58,2L97.1,117.87a13.75,13.75,0,0,0-12-11.8,14,14,0,0,0-5.06.35L48,56.08a15.14,15.14,0,1,0-10.75,6.71L70.58,115.1a13.36,13.36,0,0,0-.71,3,13.71,13.71,0,0,0,22.52,12.08l98.68,9a18.7,18.7,0,1,0,18.76-27.31Z" transform="translate(-20.37 -14.66)"/></svg>